<svg width="136" height="56" viewBox="0 0 136 56" fill="none" xmlns="http://www.w3.org/2000/svg">
<path d="M5.16546 16.6779C5.34735 16.6779 5.53623 16.6849 5.72162 16.7023C6.86541 16.8143 8.01619 17.3354 8.78922 18.1994C11.9757 21.7497 4.35396 26.2899 1.33534 24.0303C-0.056802 22.9879 -0.329633 20.8123 0.373431 19.3327C1.20592 17.5908 3.29412 16.6779 5.16546 16.6779Z" fill="#808080"/>
<path d="M7.22927 31.2739C9.96807 32.2358 11.2728 36.4367 8.3101 37.9512C6.07848 39.095 2.822 37.4685 3.03537 34.7647C3.09483 33.9812 3.4656 33.2536 3.97628 32.673C4.47647 32.0993 5.10258 31.4942 5.86511 31.3053C6.24288 31.2144 6.855 31.1479 7.22927 31.2739Z" fill="#808080"/>
<path d="M65.2758 18.9057C66.2237 19.3464 67.0772 19.9935 67.9692 20.805C70.659 23.257 71.6839 26.6638 70.638 30.1827C69.2319 34.9117 63.7543 36.3528 59.4904 37.4652C58.2137 37.654 57.0035 37.7625 56.5872 37.9164C57.2728 41.5961 63.1072 41.4177 65.6816 40.4978C66.8988 40.064 68.1056 39.5918 69.2738 39.0427C69.816 38.7873 71.8832 37.2623 72.3729 37.8499C73.2509 38.8993 73.2124 41.3407 72.5933 42.5405C72.2715 43.1701 71.404 43.7752 70.8164 44.0656C66.4371 46.2237 60.2669 47.0282 56.1185 43.9326C54.8943 43.0162 53.5546 41.7605 52.6941 40.4873C52.0121 39.4799 51.4314 38.2906 51.0606 37.1294C49.9064 33.5161 49.658 29.0459 51.4069 25.576C52.6207 23.1765 54.8173 20.8225 57.1958 19.5458C58.5495 18.8182 60.8091 18.1606 62.3586 18.2166C63.4779 18.2621 64.4154 18.4999 65.2758 18.9057ZM60.3894 24.6981C59.5988 25.0339 58.8503 25.555 58.2977 26.0237C55.9086 28.0665 55.2056 29.9343 55.4504 33.0964C55.4749 33.4077 57.4197 32.6416 58.0563 32.3968C60.3754 31.4874 65.4577 29.3572 63.9397 25.7894C63.2156 24.0894 61.7465 24.1209 60.3894 24.6981Z" fill="#808080"/>
<path d="M104.801 34.4152C104.791 34.5096 104.78 34.6076 104.77 34.702C104.486 37.4898 104.308 40.295 103.916 43.0723C103.717 44.4819 103.574 45.8986 103.346 47.3012C103.171 48.3575 103.028 49.4628 102.458 50.3933C100.677 53.2965 98.1414 51.8729 96.41 49.4628C96.41 49.4628 90.698 41.138 88.1446 36.4229C84.7517 30.1548 82.695 26.3527 81.3063 23.5544C81.2783 23.9567 81.3063 23.9462 81.3588 24.7507C81.6526 29.1229 81.9779 34.8524 82.2158 39.2282C82.3417 41.6067 82.4711 43.9852 82.6075 46.3673C82.7299 48.4555 83.0552 50.7221 82.1038 52.6774C81.2643 54.3913 79.6903 54.017 78.5185 52.9397C77.819 52.2996 76.8816 51.3552 76.4863 50.047C76.1155 48.8227 76.0911 47.8748 75.9127 46.6156C74.587 37.3778 74.3456 27.7273 74.4261 18.4021C74.4506 15.4149 74.4121 3.36491 76.92 3.8756C77.8015 4.05399 79.2776 4.3513 79.8897 4.99141C80.8271 5.9708 81.3693 7.39092 81.8415 8.62565C83.482 12.8825 85.2309 16.975 87.3506 21.5711C88.9351 25.013 90.698 28.3219 92.4889 31.6519C93.5942 33.7086 94.7695 35.7234 95.9727 37.7241C96.2945 38.2593 96.6443 38.784 97.0116 39.2911C97.19 39.5395 97.3264 39.571 97.3194 39.6374C97.5852 37.3044 97.4838 34.9049 97.5503 32.5718C97.7077 27.0312 97.8476 21.4872 98.5646 15.9921C99.0683 12.1235 99.4636 8.12896 100.754 4.43175C101.223 3.08509 101.723 1.40963 103.038 0.657592C103.857 0.192381 104.997 0.00349783 105.928 0C106.743 0 107.586 0.237853 108.306 0.598129C109.611 1.25572 109.362 2.77028 109.16 3.91407C109.013 4.72207 108.799 6.17367 108.642 7.15307C108.366 8.88449 108.187 9.79043 107.904 11.5184C107.568 13.5611 107.232 15.6003 106.942 17.6536C106.54 20.4763 106.179 23.3026 105.816 26.1288C105.462 28.8921 105.088 31.6519 104.801 34.4152Z" fill="#808080"/>
<path d="M121.906 4.07113C122.07 4.26701 122.269 4.68326 122.511 5.2534C124.567 10.1259 129.216 26.7476 129.262 26.8945C129.262 26.8945 131.626 26.6776 132.231 26.6951C133.959 26.5622 135.236 26.5517 135.002 28.7239C134.795 30.6162 134.62 31.711 133.508 31.9174C131.832 32.1517 130.598 32.2672 130.213 32.2811C130.251 32.3931 133.046 45.405 133.204 46.6712C133.319 47.6017 133.462 48.4936 133.375 49.4135C133.295 50.267 133.004 50.8441 132.406 51.5437C131.791 52.2713 131.416 52.9778 130.423 52.4741C129.779 52.1488 128.996 51.8725 128.461 51.3758C127.915 50.8686 127.723 50.1271 127.415 49.4695C126.96 48.4936 124.627 36.7724 124.344 35.0479C124.218 34.2784 123.875 32.9457 123.875 32.9457C122.497 32.9457 121.122 33.1136 119.751 33.2291C118.684 33.32 116.617 33.4494 116.099 33.6733C115.575 33.9916 115.358 36.3176 115.26 36.8703C114.347 41.8512 114.224 46.9266 113.997 51.9704C113.969 52.6001 114.116 53.6109 113.304 53.7543C112.43 53.9117 110.839 52.5826 110.205 52.0614C109.541 51.5122 108.705 50.2635 108.446 49.0707C107.484 44.6635 108.652 40.3681 109.548 36.0553C111.101 28.6014 113.112 21.249 115.393 13.991C116.152 11.5775 116.939 9.17447 117.824 6.80644C118.121 6.01593 118.373 5.21143 118.789 4.47339C119.121 3.88225 119.594 3.24914 120.356 3.33309C120.639 3.36457 120.912 3.46601 121.168 3.59543C121.412 3.71785 121.72 3.85077 121.906 4.07113ZM120.069 28.43C120.919 28.3181 123.021 28.1327 123.021 28.1327C122.798 25.8591 122.395 24.481 122.021 22.2249C121.808 20.9622 121.426 18.7585 120.79 17.6322C120.367 16.8802 119.615 18.9264 119.517 19.1748C118.911 20.7558 118.453 22.3368 118.065 23.9773C117.936 24.523 117.397 26.139 116.988 28.9057C116.984 28.9092 118.282 28.6784 120.069 28.43Z" fill="#808080"/>
<path d="M31.7489 42.9044C30.5002 43.6145 29.185 44.2231 27.8558 44.7408C27.0828 45.0416 23.4975 46.5491 23.7144 44.4679C24.0397 41.3863 24.3965 37.4023 24.4524 34.3067C24.5504 29.3993 24.386 24.4743 23.8858 19.5879C23.7494 18.2692 23.5325 16.7826 23.3506 15.4709C23.0183 13.5191 22.6021 11.3644 22.2558 9.668C21.8605 7.69522 24.7043 8.30734 25.7886 8.55919C27.9922 9.06637 30.3428 10.1262 32.2421 11.3435C36.1387 13.8409 39.5071 17.5766 40.3851 22.1797C41.6723 28.9166 40.1787 36.4054 34.7431 40.8617C33.8091 41.6312 32.8018 42.3063 31.7489 42.9044ZM43.1169 11.6408C41.0671 9.09436 38.3668 7.09709 35.614 5.37266C29.6257 1.62299 24.9141 0.0769461 16.222 0.563145C14.5955 0.654088 12.5003 1.07033 11.3496 1.4376C10.699 1.64747 10.4646 2.18964 10.3702 2.62337C10.2687 3.10607 10.2407 3.61325 10.2302 4.10645C10.1953 5.76092 10.1498 7.99604 12.0141 8.67811C12.7487 8.95095 13.854 8.17792 14.1863 9.33221C14.2562 9.56656 14.3052 9.80791 14.3647 10.0458C14.8614 12.0255 15.3336 14.0053 15.6974 16.0096C16.0611 18.0208 16.3095 20.0461 16.4704 22.0818C16.6418 24.268 16.7257 26.4646 16.7642 28.6612C16.8097 31.1832 16.7852 33.7086 16.7222 36.2305C16.6872 37.6192 16.6383 39.0043 16.5823 40.3895C16.5159 42.0404 16.5193 43.7124 16.243 45.3424C16.2185 45.4788 16.1871 46.1609 16.0961 46.2029C13.2664 47.3991 9.0165 44.2895 8.6877 49.2914C8.65622 49.7287 9.14941 53.5798 10.0204 54.6641C10.7864 55.612 12.287 55.8464 14.0359 55.9128C15.1377 55.9513 16.243 56.0003 17.3448 56.0003C19.2092 56.0003 21.0525 55.8324 22.8714 55.3917C24.6553 54.9544 26.3832 54.3213 28.0657 53.5903C29.5803 52.9327 31.0528 52.1807 32.4625 51.3237C33.8861 50.4562 35.2677 49.4943 36.5934 48.4869C40.1297 45.7936 43.4911 42.5196 45.5304 38.5251C46.7301 36.1781 47.4017 33.037 47.776 30.4416C48.7169 23.9566 47.2828 16.8106 43.1169 11.6408Z" fill="#808080"/>
</svg>
