<svg id="Layer_1" xmlns="http://www.w3.org/2000/svg" viewBox="0 0 453.2 366.2"><style>.st0{fill:#fff}</style><path class="st0" d="M66.4 366.2zM314.4 0H139.2C62.6 0 .5 61.7.5 137.8c-7 84.3 66.9 225.7 65.9 228.4.1-1.5 7.5-90.8 33-95.5 12.1 4 23.4 4.8 39.9 4.8h175.2c76.6 0 138.7-61.7 138.7-137.8S391.1 0 314.4 0zM145.8 104.8H101v25.3h41.8v20.7H101v44.7H75.3V84h70.5v20.8zm45 90.7h-25.6V84h25.6v111.5zm193.7 0H206v-13.7l55.2-76.1v-.5H211V84h83.9v14.4l-54.1 75.4v.5h59.3l49.8-68.6v-.5h-50.3V84h83.9v14.4l-54.1 75.4v.5h55.1v21.2z"/></svg>